<svg width="24" height="24" viewBox="0 0 24 24" fill="none" xmlns="http://www.w3.org/2000/svg">
<path d="M12.5999 18.06C12.2399 18.34 11.7299 18.34 11.3699 18.06L5.21993 13.28C4.85993 13 4.35993 13 3.99993 13.28C3.48993 13.68 3.48993 14.45 3.99993 14.85L10.7599 20.11C11.4799 20.67 12.4899 20.67 13.2199 20.11L19.9799 14.85C20.4899 14.45 20.4899 13.68 19.9799 13.28L19.9699 13.27C19.6099 12.99 19.1099 12.99 18.7499 13.27L12.5999 18.06ZM13.2299 15.04L19.9899 9.77999C20.4999 9.37999 20.4999 8.59999 19.9899 8.19999L13.2299 2.93999C12.5099 2.37999 11.4999 2.37999 10.7699 2.93999L4.00993 8.20999C3.49993 8.60999 3.49993 9.38999 4.00993 9.78999L10.7699 15.05C11.4899 15.61 12.5099 15.61 13.2299 15.04Z" fill="#545784"/>
</svg>
