<svg width="24" height="24" viewBox="0 0 24 24" fill="none" xmlns="http://www.w3.org/2000/svg">
<path d="M12.5997 18.06C12.2397 18.34 11.7297 18.34 11.3697 18.06L5.21969 13.28C4.85969 13 4.35969 13 3.99969 13.28C3.48969 13.68 3.48969 14.45 3.99969 14.85L10.7597 20.11C11.4797 20.67 12.4897 20.67 13.2197 20.11L19.9797 14.85C20.4897 14.45 20.4897 13.68 19.9797 13.28L19.9697 13.27C19.6097 12.99 19.1097 12.99 18.7497 13.27L12.5997 18.06ZM13.2297 15.04L19.9897 9.78002C20.4997 9.38002 20.4997 8.60002 19.9897 8.20002L13.2297 2.94002C12.5097 2.38002 11.4997 2.38002 10.7697 2.94002L4.00969 8.21002C3.49969 8.61002 3.49969 9.39002 4.00969 9.79002L10.7697 15.05C11.4897 15.61 12.5097 15.61 13.2297 15.04Z" fill="#C4C7E1"/>
</svg>
