<svg width="112" height="29" viewBox="0 0 112 29" fill="none" xmlns="http://www.w3.org/2000/svg">
<path d="M16.6543 3.484L26.3743 23.572C26.7823 24.388 26.9863 25 26.9863 25.408C26.9863 26.272 26.2903 27.052 24.8983 27.748C24.0823 28.156 23.4343 28.36 22.9543 28.36C22.4983 28.36 22.1143 28.252 21.8023 28.036C21.5143 27.82 21.2983 27.592 21.1543 27.352C21.0343 27.112 20.8543 26.752 20.6143 26.272L18.7423 22.384H8.77033L6.89833 26.272C6.65833 26.752 6.46633 27.1 6.32233 27.316C6.20233 27.532 5.98633 27.76 5.67433 28C5.38633 28.216 5.00233 28.324 4.52233 28.324C4.06633 28.324 3.43033 28.12 2.61433 27.712C1.22233 27.04 0.526328 26.272 0.526328 25.408C0.526328 25 0.730328 24.388 1.13833 23.572L10.8583 3.448C11.1223 2.896 11.5183 2.452 12.0463 2.116C12.5983 1.78 13.1743 1.612 13.7743 1.612C15.0703 1.612 16.0303 2.236 16.6543 3.484ZM13.7383 12.124L11.3623 17.056H16.1503L13.7383 12.124ZM28.2505 3.268C28.2505 2.716 28.2625 2.308 28.2865 2.044C28.3345 1.756 28.4425 1.432 28.6105 1.072C28.9465 0.423999 29.8825 0.0999987 31.4185 0.0999987C32.8825 0.0999987 33.7945 0.423999 34.1545 1.072C34.3465 1.432 34.4545 1.756 34.4785 2.044C34.5265 2.332 34.5505 2.752 34.5505 3.304V19.972C34.5505 20.836 34.6225 21.388 34.7665 21.628C34.9105 21.844 35.2225 21.952 35.7025 21.952C36.2065 21.952 36.5425 21.976 36.7105 22.024C36.8785 22.048 37.0825 22.144 37.3225 22.312C37.8025 22.624 38.0425 23.476 38.0425 24.868C38.0425 26.38 37.8025 27.304 37.3225 27.64C36.6985 28.072 35.2105 28.144 32.8585 27.856C31.0105 27.616 29.8105 27.004 29.2585 26.02C28.5865 24.844 28.2505 22.972 28.2505 20.404V3.268ZM39.4879 18.532C39.4879 15.652 40.4959 13.276 42.5119 11.404C44.5279 9.532 46.8319 8.596 49.4239 8.596C52.0159 8.596 54.3079 9.532 56.2999 11.404C58.2919 13.252 59.2879 15.616 59.2879 18.496C59.2879 20.488 58.7719 22.264 57.7399 23.824C56.7079 25.36 55.4479 26.5 53.9599 27.244C52.4959 27.964 50.9719 28.324 49.3879 28.324C47.8039 28.324 46.2679 27.94 44.7799 27.172C43.2919 26.38 42.0319 25.228 40.9999 23.716C39.9919 22.18 39.4879 20.452 39.4879 18.532ZM47.0119 21.124C47.7799 21.7 48.5599 21.988 49.3519 21.988C50.1439 21.988 50.9359 21.688 51.7279 21.088C52.5199 20.488 52.9159 19.6 52.9159 18.424C52.9159 17.248 52.5439 16.372 51.7999 15.796C51.0559 15.22 50.2519 14.932 49.3879 14.932C48.5239 14.932 47.7199 15.232 46.9759 15.832C46.2319 16.432 45.8599 17.32 45.8599 18.496C45.8599 19.648 46.2439 20.524 47.0119 21.124ZM72.1258 9.1C74.5258 9.1 76.5178 10.012 78.1018 11.836C79.7098 13.66 80.5138 15.892 80.5138 18.532V24.868C80.5138 25.42 80.4898 25.84 80.4418 26.128C80.4178 26.392 80.3098 26.704 80.1178 27.064C79.8058 27.688 78.8818 28 77.3458 28C75.8818 28 74.9698 27.688 74.6098 27.064C74.4178 26.704 74.2978 26.38 74.2498 26.092C74.2258 25.804 74.2138 25.372 74.2138 24.796V18.496C74.2138 17.512 73.9378 16.744 73.3858 16.192C72.8338 15.64 72.1258 15.364 71.2618 15.364C70.4218 15.364 69.6778 15.628 69.0298 16.156C68.3818 16.66 68.0098 17.236 67.9138 17.884V24.868C67.9138 25.42 67.8898 25.84 67.8418 26.128C67.8178 26.392 67.7098 26.704 67.5178 27.064C67.2058 27.688 66.2818 28 64.7458 28C63.2338 28 62.3098 27.676 61.9738 27.028C61.8058 26.668 61.6978 26.356 61.6498 26.092C61.6258 25.828 61.6138 25.408 61.6138 24.832V3.304C61.6138 2.752 61.6258 2.344 61.6498 2.08C61.6978 1.792 61.8058 1.48 61.9738 1.144C62.3098 0.495998 63.2458 0.171998 64.7818 0.171998C66.2938 0.171998 67.2058 0.495998 67.5178 1.144C67.7098 1.504 67.8178 1.828 67.8418 2.116C67.8898 2.38 67.9138 2.788 67.9138 3.34V11.296C69.1138 9.832 70.5178 9.1 72.1258 9.1ZM95.7227 11.044C95.8667 9.7 96.8147 9.028 98.5667 9.028C99.5027 9.028 100.199 9.1 100.655 9.244C101.111 9.388 101.423 9.64 101.591 10C101.783 10.36 101.891 10.684 101.915 10.972C101.963 11.236 101.987 11.644 101.987 12.196V24.796C101.987 25.348 101.963 25.768 101.915 26.056C101.891 26.32 101.795 26.632 101.627 26.992C101.291 27.616 100.463 27.928 99.1427 27.928C97.8467 27.928 96.9707 27.772 96.5147 27.46C96.0827 27.124 95.8307 26.644 95.7587 26.02C94.8707 27.292 93.3827 27.928 91.2947 27.928C89.2307 27.928 87.3107 26.98 85.5347 25.084C83.7587 23.188 82.8707 20.992 82.8707 18.496C82.8707 15.976 83.7587 13.78 85.5347 11.908C87.3347 10.012 89.3027 9.064 91.4387 9.064C92.2547 9.064 92.9987 9.208 93.6707 9.496C94.3427 9.784 94.8107 10.06 95.0747 10.324C95.3387 10.564 95.5547 10.804 95.7227 11.044ZM89.1707 18.532C89.1707 19.324 89.4827 20.044 90.1067 20.692C90.7307 21.316 91.4867 21.628 92.3747 21.628C93.2627 21.628 93.9947 21.304 94.5707 20.656C95.1707 20.008 95.4707 19.3 95.4707 18.532C95.4707 17.74 95.1827 17.008 94.6067 16.336C94.0547 15.664 93.2987 15.328 92.3387 15.328C91.4027 15.328 90.6347 15.664 90.0347 16.336C89.4587 17.008 89.1707 17.74 89.1707 18.532ZM105.216 22.528C105.456 22.048 105.816 21.724 106.296 21.556C106.8 21.388 107.568 21.304 108.6 21.304C109.656 21.304 110.412 21.532 110.868 21.988C111.348 22.444 111.588 23.164 111.588 24.148V24.724C111.588 25.3 111.564 25.732 111.516 26.02C111.492 26.284 111.384 26.608 111.192 26.992C110.808 27.688 109.884 28.036 108.42 28.036C106.98 28.036 106.02 27.808 105.54 27.352C105.084 26.872 104.856 25.96 104.856 24.616C104.856 23.68 104.976 22.984 105.216 22.528ZM110.04 18.316C109.584 18.436 108.972 18.496 108.204 18.496C107.436 18.496 106.824 18.436 106.368 18.316C105.912 18.196 105.588 17.98 105.396 17.668C105.228 17.356 105.12 17.08 105.072 16.84C105.048 16.6 105.036 16.228 105.036 15.724V4.312C105.036 3.808 105.048 3.436 105.072 3.196C105.12 2.932 105.24 2.644 105.432 2.332C105.624 2.02 105.948 1.804 106.404 1.684C106.86 1.54 107.472 1.468 108.24 1.468C109.008 1.468 109.62 1.54 110.076 1.684C110.532 1.804 110.844 2.032 111.012 2.368C111.204 2.68 111.312 2.968 111.336 3.232C111.384 3.472 111.408 3.844 111.408 4.348V15.76C111.408 16.264 111.384 16.636 111.336 16.876C111.312 17.116 111.204 17.392 111.012 17.704C110.82 17.992 110.496 18.196 110.04 18.316Z" fill="#7D7F9A"/>
</svg>
