<?xml version="1.0" encoding="UTF-8" standalone="no"?>
<!-- Created with Inkscape (http://www.inkscape.org/) -->

<svg
   xmlns:osb="http://www.openswatchbook.org/uri/2009/osb"
   xmlns:dc="http://purl.org/dc/elements/1.1/"
   xmlns:cc="http://creativecommons.org/ns#"
   xmlns:rdf="http://www.w3.org/1999/02/22-rdf-syntax-ns#"
   xmlns:svg="http://www.w3.org/2000/svg"
   xmlns="http://www.w3.org/2000/svg"
   xmlns:xlink="http://www.w3.org/1999/xlink"
   xmlns:sodipodi="http://sodipodi.sourceforge.net/DTD/sodipodi-0.dtd"
   xmlns:inkscape="http://www.inkscape.org/namespaces/inkscape"
   width="1052.3622"
   height="1488.189"
   id="svg2"
   version="1.1"
   inkscape:version="0.48.0 r9654"
   sodipodi:docname="logo_coru.svg">
  <defs
     id="defs4">
    <linearGradient
       id="linearGradient5411">
      <stop
         style="stop-color:#ffffff;stop-opacity:0.11510792;"
         offset="0"
         id="stop5413" />
      <stop
         style="stop-color:#ffffff;stop-opacity:0;"
         offset="1"
         id="stop5415" />
    </linearGradient>
    <linearGradient
       id="linearGradient5289"
       osb:paint="solid">
      <stop
         style="stop-color:#35004a;stop-opacity:1;"
         offset="0"
         id="stop5291" />
    </linearGradient>
    <linearGradient
       gradientUnits="userSpaceOnUse"
       y2="487.80478"
       x2="615.85315"
       y1="487.80478"
       x1="85.334572"
       id="linearGradient4619"
       xlink:href="#linearGradient4615"
       inkscape:collect="always" />
    <linearGradient
       id="linearGradient4607">
      <stop
         id="stop4609"
         offset="0"
         style="stop-color:#482753;stop-opacity:1;" />
      <stop
         id="stop4611"
         offset="1"
         style="stop-color:#482753;stop-opacity:0;" />
    </linearGradient>
    <linearGradient
       osb:paint="solid"
       id="linearGradient4615">
      <stop
         id="stop4617"
         offset="0"
         style="stop-color:#482753;stop-opacity:1;" />
    </linearGradient>
    <linearGradient
       id="linearGradient4628">
      <stop
         style="stop-color:#ffffff;stop-opacity:0;"
         offset="0"
         id="stop4650" />
      <stop
         id="stop4652"
         offset="0.5"
         style="stop-color:#d1c9d4;stop-opacity:0.8745098;" />
      <stop
         id="stop4632"
         offset="1"
         style="stop-color:#ffffff;stop-opacity:1;" />
    </linearGradient>
    <linearGradient
       id="linearGradient4654">
      <stop
         id="stop4656"
         offset="0"
         style="stop-color:#000000;stop-opacity:0.70588237;" />
      <stop
         id="stop4658"
         offset="1"
         style="stop-color:#000000;stop-opacity:0;" />
    </linearGradient>
    <linearGradient
       inkscape:collect="always"
       xlink:href="#linearGradient4654-0"
       id="linearGradient3047-9"
       gradientUnits="userSpaceOnUse"
       x1="123.72037"
       y1="352.44434"
       x2="526.95972"
       y2="625.18555" />
    <linearGradient
       id="linearGradient4654-0">
      <stop
         id="stop4656-7"
         offset="0"
         style="stop-color:#551d6b;stop-opacity:1;" />
      <stop
         id="stop4658-4"
         offset="1"
         style="stop-color:#550957;stop-opacity:1;" />
    </linearGradient>
    <linearGradient
       inkscape:collect="always"
       xlink:href="#linearGradient4654"
       id="linearGradient5385"
       x1="194.3605"
       y1="382.09048"
       x2="671.50336"
       y2="659.23334"
       gradientUnits="userSpaceOnUse" />
    <linearGradient
       inkscape:collect="always"
       xlink:href="#linearGradient4654"
       id="linearGradient5387"
       gradientUnits="userSpaceOnUse"
       x1="81.3097"
       y1="245.31291"
       x2="436.07684"
       y2="589.31036" />
    <linearGradient
       inkscape:collect="always"
       xlink:href="#linearGradient5411"
       id="linearGradient5423"
       x1="150.0224"
       y1="344.94763"
       x2="200.0224"
       y2="377.80478"
       gradientUnits="userSpaceOnUse"
       spreadMethod="pad" />
    <linearGradient
       inkscape:collect="always"
       xlink:href="#linearGradient5411"
       id="linearGradient5425"
       gradientUnits="userSpaceOnUse"
       spreadMethod="pad"
       x1="174.30812"
       y1="319.23334"
       x2="232.87956"
       y2="394.94763" />
    <marker
       refY="0"
       refX="0"
       style="overflow:visible"
       id="DistanceX-06"
       orient="auto">
      <path
         style="stroke:#000000;stroke-width:0.5"
         d="M 3,-3 -3,3 M 0,-5 0,5"
         id="path5313"
         inkscape:connector-curvature="0" />
    </marker>
    <symbol
       id="*MODEL_SPACE-4" />
    <symbol
       id="*PAPER_SPACE-1" />
    <marker
       refY="0"
       refX="0"
       style="overflow:visible"
       id="DistanceX-0"
       orient="auto">
      <path
         style="stroke:#000000;stroke-width:0.5"
         d="M 3,-3 -3,3 M 0,-5 0,5"
         id="path4965"
         inkscape:connector-curvature="0" />
    </marker>
    <symbol
       id="*MODEL_SPACE-91" />
    <symbol
       id="*PAPER_SPACE-79" />
    <marker
       refY="0"
       refX="0"
       style="overflow:visible"
       id="DistanceX-1"
       orient="auto">
      <path
         style="stroke:#000000;stroke-width:0.5"
         d="M 3,-3 -3,3 M 0,-5 0,5"
         id="path4905"
         inkscape:connector-curvature="0" />
    </marker>
    <symbol
       id="*MODEL_SPACE-9" />
    <symbol
       id="*PAPER_SPACE-7" />
    <marker
       refY="0"
       refX="0"
       style="overflow:visible"
       id="DistanceX"
       orient="auto">
      <path
         style="stroke:#000000;stroke-width:0.5"
         d="M 3,-3 -3,3 M 0,-5 0,5"
         id="path4341"
         inkscape:connector-curvature="0" />
    </marker>
    <symbol
       id="*MODEL_SPACE" />
    <symbol
       id="*PAPER_SPACE" />
    <marker
       refY="0"
       refX="0"
       style="overflow:visible"
       id="DistanceX-06-6"
       orient="auto">
      <path
         inkscape:connector-curvature="0"
         style="stroke:#000000;stroke-width:0.5"
         d="M 3,-3 -3,3 M 0,-5 0,5"
         id="path5313-7" />
    </marker>
    <symbol
       id="*MODEL_SPACE-4-2" />
    <symbol
       id="*PAPER_SPACE-1-5" />
    <marker
       refY="0"
       refX="0"
       style="overflow:visible"
       id="DistanceX-0-3"
       orient="auto">
      <path
         inkscape:connector-curvature="0"
         style="stroke:#000000;stroke-width:0.5"
         d="M 3,-3 -3,3 M 0,-5 0,5"
         id="path4965-1" />
    </marker>
    <symbol
       id="*MODEL_SPACE-91-3" />
    <symbol
       id="*PAPER_SPACE-79-8" />
    <marker
       refY="0"
       refX="0"
       style="overflow:visible"
       id="DistanceX-1-6"
       orient="auto">
      <path
         inkscape:connector-curvature="0"
         style="stroke:#000000;stroke-width:0.5"
         d="M 3,-3 -3,3 M 0,-5 0,5"
         id="path4905-9" />
    </marker>
    <symbol
       id="*MODEL_SPACE-9-5" />
    <symbol
       id="*PAPER_SPACE-7-9" />
    <marker
       refY="0"
       refX="0"
       style="overflow:visible"
       id="DistanceX-09"
       orient="auto">
      <path
         inkscape:connector-curvature="0"
         style="stroke:#000000;stroke-width:0.5"
         d="M 3,-3 -3,3 M 0,-5 0,5"
         id="path4341-4" />
    </marker>
    <symbol
       id="*MODEL_SPACE-1" />
    <symbol
       id="*PAPER_SPACE-9" />
  </defs>
  <sodipodi:namedview
     id="base"
     pagecolor="#ffffff"
     bordercolor="#666666"
     borderopacity="1.0"
     inkscape:pageopacity="0.0"
     inkscape:pageshadow="2"
     inkscape:zoom="0.66583333"
     inkscape:cx="601.67558"
     inkscape:cy="812.62988"
     inkscape:document-units="px"
     inkscape:current-layer="layer4"
     showgrid="false"
     inkscape:window-width="1680"
     inkscape:window-height="988"
     inkscape:window-x="-8"
     inkscape:window-y="-8"
     inkscape:window-maximized="1" />
  <metadata
     id="metadata7">
    <rdf:RDF>
      <cc:Work
         rdf:about="">
        <dc:format>image/svg+xml</dc:format>
        <dc:type
           rdf:resource="http://purl.org/dc/dcmitype/StillImage" />
        <dc:title />
      </cc:Work>
    </rdf:RDF>
  </metadata>
  <g
     inkscape:groupmode="layer"
     id="layer4"
     inkscape:label="capa4"
     style="display:inline"
     transform="translate(0,435.82679)"
     sodipodi:insensitive="true">
    <g
       inkscape:label="Capa 1"
       id="layer1-7"
       style="fill:#4f027c;fill-opacity:1;display:inline"
       transform="matrix(1.3931198,0,0,1.3931198,46.955267,-468.43559)">
      <path
         style="fill:#4f027c;fill-opacity:1"
         d="m 254.43227,769.96559 c -0.17487,-0.15272 -4.36794,-0.56712 -9.31794,-0.92088 -39.14819,-2.79778 -75.86405,-18.24573 -102.12831,-42.9698 C 104.77885,690.10829 84.364278,637.38925 81.944796,568.44072 79.894264,510.00624 92.879872,449.71759 118.51441,398.65796 c 34.35426,-68.42786 88.33202,-116.3625 150.39998,-133.56185 14.70791,-4.07564 29.02901,-7.24579 30.90045,-6.8402 0.38527,0.0835 2.94621,-0.27408 5.69098,-0.79461 16.82907,-3.19157 65.05923,-3.20904 92.10851,-0.0334 15.17172,1.78121 42.9406,5.85803 43.88748,6.44324 0.36012,0.22257 2.67027,0.70283 5.13365,1.06726 2.46338,0.36442 10.10387,1.99253 16.97887,3.61803 88.20907,20.85581 148.49608,64.39307 166.44641,120.20203 5.13051,15.95113 6.06571,23.42798 5.90156,47.18222 -0.13695,19.81801 -0.46532,23.78526 -3.31088,40 -1.73737,9.9 -3.54496,20.475 -4.01687,23.5 -0.47191,3.025 -2.20977,12.025 -3.86192,20 -1.65214,7.975 -3.72443,18.1 -4.60508,22.5 -8.52639,42.60062 -12.06759,56.80922 -19.31523,77.5 -11.81346,33.72545 -27.67831,57.61757 -48.82977,73.53662 -12.00692,9.03667 -34.4212,18.72138 -51.90822,22.42839 -2.2,0.46637 -8.275,1.84176 -13.5,3.05642 -5.225,1.21466 -10.4,2.33984 -11.5,2.5004 -1.1,0.16057 -7.175,1.4973 -13.5,2.97053 -6.325,1.47322 -14.425,3.31257 -18,4.08743 -3.575,0.77486 -9.65,2.34878 -13.5,3.49758 -3.85,1.14881 -9.925,2.89476 -13.5,3.87989 -3.575,0.98513 -14.825,4.50604 -25,7.82426 -52.49519,17.11943 -70.56718,21.60717 -103.5,25.70171 -5.27022,0.65525 -33.1377,1.51707 -33.68206,1.04164 z"
         id="path4046"
         inkscape:connector-curvature="0" />
    </g>
  </g>
  <g
     inkscape:groupmode="layer"
     id="layer5"
     inkscape:label="capa3"
     style="display:inline"
     transform="translate(0,435.82679)"
     sodipodi:insensitive="true">
    <g
       id="layer2"
       inkscape:label="Capa"
       style="fill:#4f027c;fill-opacity:1;display:inline"
       transform="matrix(1.3985711,0,0,1.3985711,42.432087,-458.20378)">
      <path
         style="opacity:0.8;fill:#4f027c;fill-opacity:1"
         d="m 367.51279,770.8104 c -13.59176,-1.32101 -23.85488,-4.42412 -39.01358,-11.79596 -5.76753,-2.80481 -11.83642,-5.89692 -13.48642,-6.87137 -3.52183,-2.07989 -19.58619,-12.09205 -22.8852,-14.26326 -1.25353,-0.825 -5.11009,-3.3 -8.57013,-5.5 -3.46004,-2.2 -7.69807,-4.92247 -9.41783,-6.04993 -6.44384,-4.22451 -28.71315,-17.54552 -30.38669,-18.17664 -0.95708,-0.36094 -4.21515,-2.07999 -7.24015,-3.82013 -3.025,-1.74014 -17.2,-9.15405 -31.5,-16.47535 C 173.94596,671.95218 164.15407,666.41924 147.15491,655.16497 95.084736,620.69198 63.934901,579.0926 53.340727,529.87981 c -4.354258,-20.22671 -3.433315,-49.67378 2.239933,-71.6216 11.670525,-45.1492 41.631974,-90.67787 85.33474,-129.67255 44.59949,-39.7948 95.7473,-66.9582 151.09739,-80.24427 36.21665,-8.69333 78.11026,-9.77033 112.41282,-2.88989 60.71215,12.17769 115.14434,52.11954 169.56915,124.42831 45.05062,59.85423 69.71623,117.24166 72.42273,168.5 2.5462,48.22232 -13.00626,84.89139 -49.38014,116.42685 -8.76002,7.59477 -21.90601,17.72958 -32.52267,25.07315 -4.50974,3.1194 -7.29251,5.07535 -18.50189,13.00458 -2.95034,2.087 -53.03791,35.0848 -57.64263,37.9751 -38.74986,24.32253 -70.47164,37.22613 -97.85737,39.80585 -11.39726,1.07361 -13.32141,1.08574 -23,0.14506 z"
         id="path4060"
         inkscape:connector-curvature="0" />
    </g>
  </g>
  <g
     inkscape:groupmode="layer"
     id="layer6"
     inkscape:label="capa2"
     style="display:inline"
     transform="translate(0,435.82679)">
    <g
       id="layer3-7"
       inkscape:label="Capa#1"
       style="fill:#4f027b;fill-opacity:1;display:inline"
       transform="matrix(1.3919375,0,0,1.3919375,60.606647,-425.94149)">
      <path
         style="fill:#4f027b;fill-opacity:1"
         d="m 333.03309,785.6044 c -1.65,-0.22619 -7.05,-0.89931 -12,-1.49582 -4.95,-0.59652 -10.35,-1.46971 -12,-1.94044 -1.65,-0.47072 -5.025,-1.38273 -7.5,-2.02669 -13.54171,-3.52336 -23.59547,-7.33461 -39,-14.7844 -52.69355,-25.48317 -104.79146,-78.03268 -138.34588,-139.54514 -4.75977,-8.72566 -8.65412,-16.067 -8.65412,-16.31408 0,-0.24707 -1.17821,-3.00789 -2.61823,-6.13515 -6.28827,-13.65602 -15.791011,-40.95176 -19.212433,-55.18592 -6.219624,-25.87554 -8.43427,-44.17325 -8.366346,-69.12389 0.08517,-31.2841 4.851535,-57.06662 15.506029,-83.87611 16.80125,-42.27633 44.36592,-76.56201 97.22146,-120.92667 14.59352,-12.24917 47.56216,-34.94531 66.96952,-46.1029 9.91692,-5.70138 38.65528,-19.42775 40.08155,-19.97043 1.41789,-0.53949 2.0342,-0.63144 3.76732,-1.4032 8.08202,-3.59894 28.53712,-10.22821 37.65113,-12.20232 1.925,-0.41696 3.95,-0.87446 4.5,-1.01666 11.14421,-2.8814 20.96701,-4.59566 41.13487,-4.63938 20.81729,-0.0451 22.51024,0.91507 33.86513,3.61699 6.6,1.57049 12.27496,3.50629 12.95,3.75 1.73636,0.62688 1.37775,0.358 2.5,0.90106 2.38205,0.01 21.82264,10.13364 28.48464,14.83334 18.83197,13.285 38.56251,35.23577 58.56946,65.16017 2.39018,3.575 4.60745,6.725 4.92726,7 0.87085,0.74883 27.06864,39.97501 27.06864,40.53011 0,0.26342 1.95346,3.28941 4.34103,6.72442 23.73265,34.14433 40.07534,66.88151 47.04817,94.24547 3.48203,13.66472 4.00811,18.0236 3.92252,32.5 -0.14483,24.49606 -5.95191,41.32956 -25.01042,72.5 -0.67257,1.1 -1.54518,2.675 -1.93914,3.5 -0.39395,0.825 -0.9741,1.725 -1.28922,2 -1.02282,0.8926 -5.07294,6.90138 -5.07294,7.52623 0,0.33397 -1.125,2.08216 -2.5,3.88488 -1.375,1.80272 -2.5,3.7426 -2.5,4.31084 0,0.56824 -0.701,1.61494 -1.55778,2.326 -0.85677,0.71106 -2.21033,2.67866 -3.00789,4.37244 -0.79757,1.69379 -2.45907,4.51033 -3.69223,6.25898 -4.09852,5.81184 -10.02426,15.54996 -13.52477,22.22606 -1.90177,3.62701 -5.68251,10.57543 -8.40165,15.44093 -2.71913,4.8655 -6.86053,12.7405 -9.20311,17.5 -12.84268,26.09289 -27.1142,51.83727 -37.50415,67.65364 -35.42098,53.92051 -78.39256,85.73782 -129.03906,95.54398 -9.96151,1.92875 -31.96701,3.28873 -38.56936,2.38366 z"
         id="path4592-3"
         inkscape:connector-curvature="0"
         sodipodi:nodetypes="sssssssssssssssssssscssssssssssssssssssssss" />
    </g>
  </g>
  <g
     inkscape:groupmode="layer"
     id="layer7"
     inkscape:label="brillo (blanco)"
     style="display:inline"
     transform="translate(0,435.82679)"
     sodipodi:insensitive="true">
    <g
       id="layer3-7-0"
       inkscape:label="Capa#1"
       style="fill:url(#linearGradient5423);fill-opacity:1;display:inline"
       transform="matrix(1.3919357,0,0,1.3919357,60.605717,-425.94006)">
      <path
         style="fill:url(#linearGradient5425);fill-opacity:1"
         d="m 333.03309,785.6044 c -1.65,-0.22619 -7.05,-0.89931 -12,-1.49582 -4.95,-0.59652 -10.35,-1.46971 -12,-1.94044 -1.65,-0.47072 -5.025,-1.38273 -7.5,-2.02669 -13.54171,-3.52336 -23.59547,-7.33461 -39,-14.7844 -52.69355,-25.48317 -104.79146,-78.03268 -138.34588,-139.54514 -4.75977,-8.72566 -8.65412,-16.067 -8.65412,-16.31408 0,-0.24707 -1.17821,-3.00789 -2.61823,-6.13515 -6.28827,-13.65602 -15.791011,-40.95176 -19.212433,-55.18592 -6.219624,-25.87554 -8.43427,-44.17325 -8.366346,-69.12389 0.08517,-31.2841 4.851535,-57.06662 15.506029,-83.87611 16.80125,-42.27633 44.36592,-76.56201 97.22146,-120.92667 14.59352,-12.24917 47.56216,-34.94531 66.96952,-46.1029 9.91692,-5.70138 38.55553,-19.97043 40.08155,-19.97043 0.33891,0 2.0342,-0.63144 3.76732,-1.4032 8.08202,-3.59894 28.53712,-10.22821 37.65113,-12.20232 1.925,-0.41696 3.95,-0.87446 4.5,-1.01666 11.14421,-2.8814 20.83214,-3.78642 41,-3.83014 20.81729,-0.0451 22.64511,0.10583 34,2.80775 6.6,1.57049 12.4275,3.25799 12.95,3.75 0.5225,0.49201 1.6475,0.89749 2.5,0.90106 2.38205,0.01 21.82264,10.13364 28.48464,14.83334 18.83197,13.285 38.56251,35.23577 58.56946,65.16017 2.39018,3.575 4.60745,6.725 4.92726,7 0.87085,0.74883 27.06864,39.97501 27.06864,40.53011 0,0.26342 1.95346,3.28941 4.34103,6.72442 23.73265,34.14433 40.07534,66.88151 47.04817,94.24547 3.48203,13.66472 4.00811,18.0236 3.92252,32.5 -0.14483,24.49606 -5.95191,41.32956 -25.01042,72.5 -0.67257,1.1 -1.54518,2.675 -1.93914,3.5 -0.39395,0.825 -0.9741,1.725 -1.28922,2 -1.02282,0.8926 -5.07294,6.90138 -5.07294,7.52623 0,0.33397 -1.125,2.08216 -2.5,3.88488 -1.375,1.80272 -2.5,3.7426 -2.5,4.31084 0,0.56824 -0.701,1.61494 -1.55778,2.326 -0.85677,0.71106 -2.21033,2.67866 -3.00789,4.37244 -0.79757,1.69379 -2.45907,4.51033 -3.69223,6.25898 -4.09852,5.81184 -10.02426,15.54996 -13.52477,22.22606 -1.90177,3.62701 -5.68251,10.57543 -8.40165,15.44093 -2.71913,4.8655 -6.86053,12.7405 -9.20311,17.5 -12.84268,26.09289 -27.1142,51.83727 -37.50415,67.65364 -35.42098,53.92051 -78.39256,85.73782 -129.03906,95.54398 -9.96151,1.92875 -31.96701,3.28873 -38.56936,2.38366 z"
         id="path4592-3-5"
         inkscape:connector-curvature="0" />
    </g>
  </g>
  <g
     inkscape:label="sombra (negro)"
     inkscape:groupmode="layer"
     id="layer1"
     style="display:inline"
     transform="translate(0,435.82679)">
    <g
       id="layer3"
       inkscape:label="Capa#1"
       style="opacity:0.8;fill:url(#linearGradient5385);fill-opacity:1;display:inline"
       transform="matrix(1.2956336,0,0,1.2956336,137.14291,-337.3233)">
      <path
         style="fill:url(#linearGradient5387);fill-opacity:1"
         d="m 333.03309,785.6044 c -1.65,-0.22619 -7.05,-0.89931 -12,-1.49582 -4.95,-0.59652 -10.35,-1.46971 -12,-1.94044 -1.65,-0.47072 -5.025,-1.38273 -7.5,-2.02669 -13.54171,-3.52336 -23.59547,-7.33461 -39,-14.7844 -52.69355,-25.48317 -104.79146,-78.03268 -138.34588,-139.54514 -4.75977,-8.72566 -8.65412,-16.067 -8.65412,-16.31408 0,-0.24707 -1.17821,-3.00789 -2.61823,-6.13515 -6.28827,-13.65602 -15.791011,-40.95176 -19.212433,-55.18592 -6.219624,-25.87554 -8.43427,-44.17325 -8.366346,-69.12389 0.08517,-31.2841 4.851535,-57.06662 15.506029,-83.87611 16.80125,-42.27633 44.36592,-76.56201 97.22146,-120.92667 14.59352,-12.24917 47.56216,-34.94531 66.96952,-46.1029 9.91692,-5.70138 38.55553,-19.97043 40.08155,-19.97043 0.33891,0 2.0342,-0.63144 3.76732,-1.4032 8.08202,-3.59894 28.53712,-10.22821 37.65113,-12.20232 1.925,-0.41696 3.95,-0.87446 4.5,-1.01666 11.14421,-2.8814 20.83214,-3.78642 41,-3.83014 20.81729,-0.0451 22.64511,0.10583 34,2.80775 6.6,1.57049 12.4275,3.25799 12.95,3.75 0.5225,0.49201 1.6475,0.89749 2.5,0.90106 2.38205,0.01 21.82264,10.13364 28.48464,14.83334 18.83197,13.285 38.56251,35.23577 58.56946,65.16017 2.39018,3.575 4.60745,6.725 4.92726,7 0.87085,0.74883 27.06864,39.97501 27.06864,40.53011 0,0.26342 1.95346,3.28941 4.34103,6.72442 23.73265,34.14433 40.07534,66.88151 47.04817,94.24547 3.48203,13.66472 4.00811,18.0236 3.92252,32.5 -0.14483,24.49606 -5.95191,41.32956 -25.01042,72.5 -0.67257,1.1 -1.54518,2.675 -1.93914,3.5 -0.39395,0.825 -0.9741,1.725 -1.28922,2 -1.02282,0.8926 -5.07294,6.90138 -5.07294,7.52623 0,0.33397 -1.125,2.08216 -2.5,3.88488 -1.375,1.80272 -2.5,3.7426 -2.5,4.31084 0,0.56824 -0.701,1.61494 -1.55778,2.326 -0.85677,0.71106 -2.21033,2.67866 -3.00789,4.37244 -0.79757,1.69379 -2.45907,4.51033 -3.69223,6.25898 -4.09852,5.81184 -10.02426,15.54996 -13.52477,22.22606 -1.90177,3.62701 -5.68251,10.57543 -8.40165,15.44093 -2.71913,4.8655 -6.86053,12.7405 -9.20311,17.5 -12.84268,26.09289 -27.1142,51.83727 -37.50415,67.65364 -35.42098,53.92051 -78.39256,85.73782 -129.03906,95.54398 -9.96151,1.92875 -31.96701,3.28873 -38.56936,2.38366 z"
         id="path4592"
         inkscape:connector-curvature="0" />
    </g>
  </g>
  <g
     inkscape:groupmode="layer"
     id="layer9"
     inkscape:label="letras"
     style="display:inline"
     transform="translate(0,435.82679)"
     sodipodi:insensitive="true">
    <g
       style="fill:#ffffff;display:inline"
       id="layer1-8"
       inkscape:label="Layer 1"
       transform="matrix(0.71160997,0,0,0.71160997,226.25669,15.552313)">
      <path
         inkscape:connector-curvature="0"
         id="path6455"
         d="m 202.3125,120 c -17.97409,0.008 -35.94845,3.21879 -52.8125,9.4375 -16.06917,6.10043 -30.82758,15.64593 -42.96875,27.8125 -12.01336,11.94666 -21.576247,26.30989 -27.96875,42 -6.578375,16.37094 -9.879992,34.07741 -9.625,51.71875 -0.450441,23.25567 5.472572,46.60554 16.9375,66.84375 11.575068,20.38709 29.14242,37.33125 49.9375,48.15625 9.54464,5.25548 19.81092,9.15506 30.4375,11.5625 11.51722,3.07301 23.24894,4.07418 35.03125,4.09375 9.81677,-0.0323 19.65914,-1.0545 29.28125,-3 10.00111,-2.04843 19.80974,-5.02042 29.25,-8.90625 l 0,-0.21875 2.125,-65.25 c 6.32353,14.77771 15.61545,28.28108 27.1875,39.4375 12.45678,12.0146 27.17621,21.65681 37.90625,26.03125 10.73004,4.37445 16.32677,6.17939 22.03125,7.625 l 0.125,238.9375 86.21875,0 L 435.5,493 l 73.125,123.34375 255.84375,-0.0625 0,-67.4375 -80.28125,-0.0937 0,-25.59375 70.96875,-0.125 0,-63.6875 -70.96875,-0.125 0,-23.40625 110.46875,0 0,180.34375 0.25,0 0,0.25 89.125,-0.125 0.125,-180.46875 49.46875,-0.125 0,-67.40625 -41,-0.125 c 15.736,-7.80663 29.29755,-19.9004 38.78125,-34.6875 5.59142,-8.7215 9.44107,-18.56955 11.1875,-28.78125 C 945.18162,290.28663 946.0625,261 946.0625,261 l -0.125,-134.9375 -89.4375,0.125 0.21875,140.96875 c 0.43494,5.48444 -1.58016,16.68026 -6.1875,26.65625 -2.04955,3.05039 -4.93421,5.54041 -8.25,7.125 -3.3158,1.58459 -7.03497,2.25446 -13.375,2.09375 -6.34002,-0.16071 -12.62042,-3.08628 -16.3125,-8.9375 -0.005,-0.005 -0.029,0.006 -0.0312,0 l 0,-0.0312 C 808.02837,283.96969 806.09989,272.71526 807,261.6875 l -0.125,-135.625 -89.5625,0 -0.125,46.96875 c -4.21866,-9.83123 -10.76596,-18.63731 -19,-25.46875 l 0,-0.0312 c -10.71107,-7.80833 -22.7961,-13.69915 -35.53125,-17.375 -12.73044,-3.67448 -26.09281,-5.11631 -39.3125,-4.21875 -0.005,3.4e-4 -0.0267,-3.3e-4 -0.0312,0 l -112.5,0.125 -0.125,80.71875 c -0.79887,-2.35686 -1.62704,-4.69882 -2.5625,-7 -6.363,-15.6549 -15.96334,-29.98284 -28,-41.84375 -12.3166,-12.11779 -27.09199,-21.71719 -43.1875,-28 -16.62454,-6.54358 -34.51033,-9.81037 -52.375,-9.59375 -17.84019,0.14203 -35.67729,3.39417 -52.40625,9.59375 l 0.1875,0.4375 c -0.0109,0.01 -0.0204,0.0214 -0.0312,0.0312 -0.0562,-0.15378 -0.0988,-0.3151 -0.15625,-0.46875 -16.06091,6.25036 -30.80209,15.85637 -43.03125,28 -11.9804,13.46868 -22.16073,27.74297 -28.15625,41.875 l -0.125,-67.03125 -0.0312,-0.1875 c -9.18056,-4.1558 -18.80306,-7.35511 -28.65625,-9.46875 -9.80117,-2.10239 -19.81964,-3.13749 -29.84375,-3.125 z m 412.59375,69.90625 c 0.44056,-0.008 0.87406,-0.014 1.3125,0 6.20702,0.19881 12.34523,2.49479 17.125,6.46875 4.78266,4.78197 7.36706,11.65688 6.9375,18.40625 3.2e-4,0.005 -3.4e-4,0.0263 0,0.0312 0.41148,6.596 -2.18193,13.31669 -6.9375,17.90625 l -0.1875,-0.21875 0.15625,0.21875 c -5.50534,4.43259 -12.69686,6.7375 -19.75,6.28125 l -0.0312,0 -13.90625,0 0,-0.25 -0.21875,0 0,-48.5625 0.21875,0 0,-0.25 13.90625,0 c 0.009,-4.7e-4 0.0213,4.8e-4 0.0312,0 0.43814,-0.0284 0.90319,-0.0237 1.34375,-0.0312 z M 206.5,201.28125 c 0.81214,-0.006 1.62624,-0.005 2.4375,0.0312 9.24818,-0.0282 18.48919,1.98069 26.90625,5.8125 7.00847,3.19122 13.56231,7.38624 19.375,12.4375 l -0.15625,0.1875 0.25,0.0312 c -2.23279,10.22949 -3.3533,20.71725 -3.3125,31.1875 0.0394,10.23064 1.09559,20.44771 3.15625,30.46875 l -0.21875,0.0625 0.125,0.1875 c -6.72438,4.74242 -13.94118,8.77977 -21.5,12.03125 -8.28808,3.56497 -17.29057,5.4843 -26.3125,5.5625 -0.005,5e-5 -0.0263,-3e-5 -0.0312,0 -6.28985,0.29916 -12.61974,-0.74737 -18.5,-3 -5.88486,-2.2544 -11.29907,-5.72635 -15.78125,-10.15625 -4.35306,-4.69608 -7.77815,-10.29557 -9.96875,-16.3125 -2.18893,-6.01227 -3.15637,-12.45305 -2.84375,-18.84375 -0.30874,-6.58029 0.70774,-13.23039 3,-19.40625 2.29396,-6.18049 5.87415,-11.86867 10.40625,-16.65625 l 0,-0.0312 c 4.63948,-4.55439 10.21024,-8.14273 16.28125,-10.46875 5.30811,-2.03372 11.0025,-3.08197 16.6875,-3.125 z m 175.875,2 c 0.71439,0.003 1.44283,0.0515 2.15625,0.0937 0.01,4.8e-4 0.0213,-4.8e-4 0.0312,0 5.70177,-0.21398 11.44304,0.84613 16.6875,3.09375 5.25354,2.25151 10.00071,5.68196 13.78125,9.96875 7.92481,9.56104 12.13065,22.1274 11.53125,34.53125 0.60181,12.30007 -3.61029,24.7581 -11.53125,34.1875 l 0,0.0312 c -3.80715,4.24305 -8.56217,7.62295 -13.8125,9.84375 -5.24122,2.21693 -10.96966,3.28097 -16.65625,3.0625 -0.01,-3.8e-4 -0.0213,3.9e-4 -0.0312,0 -5.69836,0.21312 -11.43337,-0.84639 -16.6875,-3.0625 -5.26322,-2.21995 -10.04716,-5.60378 -13.875,-9.84375 l 0,-0.0312 c -7.97026,-9.4047 -12.19464,-21.87446 -11.59375,-34.1875 -0.57032,-12.38811 3.64499,-24.91861 11.59375,-34.4375 3.7018,-4.40896 8.4616,-7.94387 13.75,-10.21875 3.96629,-1.70618 8.22159,-2.72105 12.53125,-2.96875 0.71334,-0.041 1.41061,-0.0659 2.125,-0.0625 z m 334.84375,39.125 0.1875,0.0937 0.28125,0 0,18.5 c -0.42493,16.09129 0.14649,29.60619 3.375,43.9375 2.21795,9.84545 3.46952,17.50993 10.84375,28.25 9.94852,14.48935 23.30581,27.44088 39.4375,35 l -0.0937,0.21875 0,0.21875 -33.25,0 0,-0.21875 -0.1875,0.125 -62.21875,-94.84375 0.21875,-0.125 -0.0312,-0.25 c 6.85313,-0.7347 13.54701,-2.89289 19.53125,-6.3125 5.98424,-3.41962 11.26279,-8.09373 15.375,-13.625 2.53542,-3.4103 4.69783,-7.05487 6.53125,-10.96875 z m -118.46875,50.25 40.09375,75.625 -0.1875,0.125 0,0.21875 -40.125,0 0,-0.21875 -0.21875,0 0,-75.65625 0.25,0 0.1875,-0.0937 z m -88.0625,0.71875 0.25,0.0937 0.21875,0 0,74.9375 0,6.34375 0,118.71875 -0.21875,0 -0.21875,0.125 -72.75,-122.46875 0.1875,-0.125 -0.0625,-0.21875 c 15.31791,-6.24998 29.40454,-15.51251 41.21875,-27.09375 12.14406,-11.87268 21.81717,-26.23223 28.28125,-41.9375 1.13105,-2.7481 2.16133,-5.54827 3.09375,-8.375 z"
         style="font-size:medium;font-style:normal;font-variant:normal;font-weight:normal;font-stretch:normal;text-indent:0;text-align:start;text-decoration:none;line-height:normal;letter-spacing:normal;word-spacing:normal;text-transform:none;direction:ltr;block-progression:tb;writing-mode:lr-tb;text-anchor:start;baseline-shift:baseline;color:#000000;fill:#ffffff;fill-opacity:1;stroke:none;stroke-width:0.03543307;marker:none;visibility:visible;display:inline;overflow:visible;enable-background:accumulate;font-family:Sans;-inkscape-font-specification:Sans" />
      <path
         inkscape:connector-curvature="0"
         id="path6400"
         d="m 300.44662,532.80092 c -11.27634,0 -22.47634,4.64224 -30.44993,12.61581 -7.97357,7.97358 -12.61581,19.17359 -12.61581,30.44993 0,11.27635 4.64224,22.47636 12.61581,30.44995 7.97359,7.97356 19.17359,12.60095 30.44993,12.60095 11.27634,0 22.47635,-4.62739 30.44993,-12.60095 7.97357,-7.97359 12.60099,-19.1736 12.60099,-30.44995 0,-11.27634 -4.62742,-22.47635 -12.60099,-30.44993 -7.97358,-7.97357 -19.17359,-12.61581 -30.44993,-12.61581 z"
         style="font-size:medium;font-style:normal;font-variant:normal;font-weight:normal;font-stretch:normal;text-indent:0;text-align:start;text-decoration:none;line-height:normal;letter-spacing:normal;word-spacing:normal;text-transform:none;direction:ltr;block-progression:tb;writing-mode:lr-tb;text-anchor:start;baseline-shift:baseline;color:#000000;fill:#ffffff;fill-opacity:1;stroke:none;stroke-width:1;marker:none;visibility:visible;display:inline;overflow:visible;enable-background:accumulate;font-family:Sans;-inkscape-font-specification:Sans" />
    </g>
  </g>
</svg>
